
- - -
Synopsis
- - -


Roses are red, violets are blue but according to the latest understanding these colours are really an illusion. One that you create yourself.

Horizon reveals a surprising truth about how we all see the world. You may think a rose is red, the sky is blue and the grass is green, but it now seems that the colours you see may not always be the same as the colours I see. Your age, sex and even mood can affect how you experience colours.

Scientists have unlocked the hidden power that colours can have over your life - how red can make you a winner, how blue makes time speed up, and more.


- - -
URL
- - -
 
http://www.bbc.co.uk/programmes/b013c8tb


- - -
Technical Details
- - -

General
Complete name : BBC.Horizon.2011.2012.S48E01.Do.You.See.What.I.See/Horizon_-_2011-2012_1._Do_You_See_What_I_See_b013c8tb_default.mp4
Format : MPEG-4
Format profile : Base Media
Codec ID : isom
File size : 1.06 GiB
Duration : 59mn 15s
Overall bit rate : 2 555 Kbps
Movie name : Horizon: 2011-2012: Do You See What I See?
Album : Horizon
Track name/Position : 1
Track name/Total : 0
Performer : Horizon
Genre : Factual,Science & Nature
Recorded date : 2011-08-08T21:00:00+01:00
Writing application : Lavf53.6.0
Cover : Yes
Comment : Recorded using get_iplayer, by Aularon.
rtng : 2
stik : 1
desc : Horizon explores the evidence for the theory that colours are really an illusion, experienced subjectively depending on age, sex and even mood.
tvnn : BBC Two
tvsh : Horizon
tven : b013c8tb
catg : Factual,Science & Nature
tves : 1

Video
ID : 1
Format : AVC
Format/Info : Advanced Video Codec
Format profile : High@L4.1
Format settings, CABAC : Yes
Format settings, ReFrames : 6 frames
Codec ID : avc1
Codec ID/Info : Advanced Video Coding
Duration : 59mn 15s
Bit rate mode : Variable
Bit rate : 2 454 Kbps
Maximum bit rate : 3 500 Kbps
Width : 1 280 pixels
Height : 720 pixels
Display aspect ratio : 16:9
Frame rate mode : Constant
Frame rate : 25.000 fps
Standard : PAL
Color space : YUV
Chroma subsampling : 4:2:0
Bit depth : 8 bits
Scan type : Progressive
Bits/(Pixel*Frame) : 0.107
Stream size : 1.02 GiB (96%)

Audio
ID : 2
Format : AAC
Format/Info : Advanced Audio Codec
Format profile : HE-AAC / LC
Codec ID : 40
Duration : 59mn 15s
Bit rate mode : Constant
Bit rate : 96.0 Kbps
Channel(s) : 2 channels
Channel positions : Front: L R
Sampling rate : 48.0 KHz / 24.0 KHz
Compression mode : Lossy
Stream size : 40.1 MiB (4%)